
        <svg xmlns="http://www.w3.org/2000/svg" xmlns:xlink="http://www.w3.org/1999/xlink" version="1.1" width="3150.4587155963304" height="749.9426605504586" viewBox="0 0 3150.4587155963304 749.9426605504586">
			
			<g transform="scale(7.522935779816513) translate(10, 10)">
				<defs id="SvgjsDefs7751"/><g id="SvgjsG7752" featureKey="symbolContainer" transform="matrix(0.8232179492534938,0,0,0.8232179492534938,0,0)" fill="#fff"><path xmlns="http://www.w3.org/2000/svg" d="M74 .7h22.2v32.8h.6V0H74v.7zM.7 33.5V.7h22.1V0H0v33.5h.7zm22.1 62.7H.7V63.3H0v33.5h22.8v-.6zm73.4-32.9v32.9H74v.6h22.8V63.3h-.6z"/></g><g id="SvgjsG7753" featureKey="monogramFeature-0" transform="matrix(1.1181847833390033,0,0,1.1181847833390033,12.754291006512105,-2.168946677816809)" fill="#fff"><path d="M27.9 59.94 c-0.36 0 -0.96 -0.18 -0.96 -0.9 c0 -0.84 0.84 -0.6 1.26 -0.84 l3.9 0 c0.66 -0.72 0.6 -0.54 0.6 -1.74 c0 -0.66 -0.12 -5.7 -0.12 -6.36 c0 -3 0.06 -5.46 0.24 -7.92 c0 -0.18 0 -0.18 -0.12 -0.36 l0 -3.24 c-0.3 -0.3 -0.42 -1.02 -0.66 -1.02 c-2.16 0 -2.7 0.12 -3.78 0.12 c-0.24 0 -2.58 -0.12 -3.12 -0.12 l0 -0.12 l-0.84 0 l0.18 0.12 c-1.98 0 -1.74 0.18 -3.54 0.18 c-0.48 0 -2.34 -0.06 -2.94 -0.06 l-1.92 0 l-0.24 0.54 c0 3.18 -0.06 7.02 -0.24 8.28 c0 0.24 0.24 0.48 0.24 1.08 l0 10.08 c0 0.24 0.42 0.6 0.72 0.96 c1.32 0 2.82 -0.36 3.66 -0.36 c0.36 0 1.38 -0.06 1.38 1.08 c-0.12 -0.06 -0.18 -0.18 -0.18 -0.36 c-0.06 0 -0.3 0.24 -0.3 0.66 c0.12 0 0.18 0 0.3 -0.06 c-0.06 0.36 -0.42 0.36 -0.72 0.36 l0 -0.36 c-0.18 0 -0.42 0.24 -0.54 0.36 c-1.56 0 -12.96 0.18 -17.82 0.18 c-0.3 0 -0.72 -0.06 -0.96 -0.48 l0 -0.78 l-0.06 0 c0 -0.06 1.44 -0.66 1.44 -0.66 c0.9 0 1.44 0.3 3.3 0.3 c1.02 0 0.66 -0.42 1.08 -0.6 c0 -3.48 -0.12 -4.08 -0.12 -5.04 c0 -2.82 0.12 -3.84 0.12 -5.1 c0 -0.9 -0.12 -3.06 -0.12 -4.44 c0 -0.12 0.12 -0.84 0.12 -0.96 c0 -0.78 -0.12 -1.68 -0.12 -3.78 l0.12 -0.18 c0 -0.24 -0.12 -0.48 -0.12 -0.72 l0 -9.18 l0.18 -0.12 c0 -0.06 -0.18 -0.3 -0.18 -0.78 l0 -10.14 s-0.18 -0.12 -0.18 -0.24 c0 -0.6 -2.34 -0.54 -2.76 -0.6 c-0.06 0 -0.84 0.12 -1.14 0.12 c-1.26 0 -1.62 -0.24 -1.8 -0.66 c0 -0.48 -0.3 -1.08 1.14 -1.32 l18.66 0 c0.06 0.06 0.66 0 0.66 0.96 c0 0.48 -0.78 1.14 -1.02 1.14 l-0.12 0.06 s0.06 0 0.06 -0.06 c0 0 -0.24 -0.24 -1.8 -0.24 l-2.04 0 c-1.08 0 -1.08 2.82 -1.08 2.94 c0 0.18 0.12 0.48 0.12 0.84 c-0.12 0.36 -0.12 0.6 -0.12 0.84 c0 0.72 0.12 1.02 0.12 1.5 c-0.12 0.18 -0.12 0.36 -0.12 0.42 c0 0.24 0.12 0.48 0.12 0.66 l0 7.44 c0 0.3 -0.18 1.08 -0.18 1.08 c0 0.3 0.18 1.02 0.18 1.32 c-0.12 0.18 -0.12 0.24 -0.12 0.3 s0.18 -0.06 0.18 0.06 c0 0.24 -0.24 0.66 -0.24 1.08 c0 0.48 0.3 0.96 1.38 0.96 c3.54 0 6.18 -0.24 9.18 -0.24 c0 0 0.36 0.06 0.42 0.06 l3.6 0 c0.18 0 0.42 0.18 0.78 0.18 c0.54 0 1.68 -0.18 1.68 -1.08 c0 -3.78 -0.12 -4.26 -0.12 -6.18 c0 -0.36 0.12 -0.9 0.12 -1.5 c0 -1.8 -0.12 -3 -0.12 -4.32 l0.06 -0.42 s-0.06 -0.48 -0.06 -0.66 c0 -1.08 0.06 -1.5 0.06 -3.18 l-0.06 0.06 c-0.06 -0.18 0.36 -2.22 -0.9 -2.22 c-0.12 0 -0.3 0.06 -0.42 0.06 c-0.6 0 -1.68 -0.12 -1.62 -0.12 c-0.42 0 -0.78 0.12 -1.08 0.12 c-1.68 0 -1.8 -0.9 -1.8 -0.9 c0 -0.6 1.02 -1.2 2.7 -1.2 c0.06 0.06 -0.06 -0.06 0.66 0.12 c1.02 0 1.02 0.06 1.14 -0.12 c0.72 0 1.38 0.18 2.1 0.18 c0.12 0 0.24 -0.06 0.42 -0.18 c0.12 0 0.42 0.12 0.54 0.12 l5.16 0 c0.24 0 0.84 -0.12 1.08 -0.18 c0.12 0 0.12 0.18 0.12 0.18 l2.88 0 l0.18 -0.12 c0.9 0.24 2.28 0.12 2.82 0.24 l0.36 0.36 c0 0.9 0.12 1.98 -1.92 1.98 c0 -0.36 -3.48 -0.48 -3.48 -0.48 l0 0 c0 0.06 0.06 -0.12 -0.06 -0.12 c-0.18 0 -0.3 0.72 -0.54 5.4 c0 0.24 0.12 0.36 0.12 0.72 c0 0.18 0 0.3 -0.12 0.42 c0 0.06 0.12 0.3 0.12 0.42 l0.12 3.24 l0 24.36 c0 0.12 0.12 0.78 0.12 0.84 c0 0.18 -0.12 0.42 -0.12 1.2 c0 0.24 0 1.32 0.12 1.62 l0 0.3 c0 3 0.3 3.24 1.44 3.24 c0.3 0 0.66 -0.06 1.02 -0.06 c0.18 0 0.48 0.06 0.78 0.06 c0.36 0 0.72 -0.06 0.9 -0.24 c1.44 0.3 1.62 0.6 1.62 1.44 c0 0.36 -0.18 0.9 -1.56 0.9 c-2.04 0 -10.08 -0.42 -17.46 -0.42 z M1.86 59.76 l-0.06 -0.12 z M4.08 59.64 l0 0.12 l0.96 0 c0 -0.3 -0.3 -0.48 -0.48 -0.48 c-0.18 0.18 -0.36 0.42 -0.48 0.36 z M19.98 59.64 l0.18 0.12 c-0.06 0 -0.12 -0.06 -0.18 -0.12 z M32.04 59.64 l0 0.12 l0.06 -0.12 l-0.06 0 z M18.3 59.28 c0 0.42 0.18 0.36 0.24 0.48 l0 -0.54 c-0.12 0 -0.18 0 -0.24 0.06 z M30.18 59.58 l0 0.06 l0.12 0 z M32.46 59.58 l0 0.06 l0.06 0 z M28.8 59.34 l0 0.24 c0.06 -0.06 0.12 -0.12 0.12 -0.24 l-0.12 0 z M5.64 59.22 c0.3 0 0.48 0.06 0.78 0.24 c-0.12 0 0.3 0 0.3 -0.12 s-0.6 -0.3 -1.08 -0.36 l0 0.24 z M27.3 58.86 l-0.12 0.36 l0.12 0 l0 -0.36 z M1.98 58.74 c-0.06 0 -0.12 0.06 -0.12 0.12 s0.06 0.12 0.12 0.12 s0.06 -0.06 0.06 -0.12 s0 -0.12 -0.06 -0.12 z M34.2 58.74 l-0.12 0 c0 0.06 0 0.12 0.06 0.12 c0 0 0.06 -0.06 0.06 -0.12 z M8.22 41.879999999999995 c-0.06 0 -0.12 0.06 -0.12 0.12 c0 0 0.06 0.06 0.12 0.06 l0.06 -0.06 c0 -0.06 -0.06 -0.12 -0.06 -0.12 z M13.86 38.58 c-0.12 0 -0.18 0 -0.18 0.12 l0.18 0 l0 -0.12 z M7.5 34.5 c-0.06 0 -0.12 0.06 -0.12 0.12 s0.06 0.12 0.12 0.12 s0.06 -0.06 0.06 -0.12 s0 -0.12 -0.06 -0.12 z M7.26 28.5 l0.06 0 l-0.12 0 s-0.06 0 0.06 0 z M13.14 28.26 c0 0.06 -0.06 0.06 -0.06 0.12 s0.06 0.06 0.12 0.12 l0.06 -0.24 l-0.12 0 z M7.5 24 l0 0.12 l0.06 0.06 c0.06 0 0.12 -0.06 0.18 -0.18 l-0.24 0 z M7.38 22.979999999999997 l0.12 0.06 l0.12 -0.06 l-0.24 0 z M33.84 22.619999999999997 c-0.06 0 -0.06 0.06 -0.06 0.12 s0 0.12 0.06 0.12 s0.06 -0.06 0.06 -0.12 s0 -0.12 -0.06 -0.12 z M5.58 16.08 c0 0.06 0 0.12 0.06 0.18 c0.12 -0.06 0.12 -0.18 0.12 -0.24 c-0.12 0 -0.18 0.06 -0.18 0.06 z M40.68 16.08 l0 0.06 l0.06 0 c0 -0.06 0 -0.06 -0.06 -0.06 z M33.18 16.08 l-0.24 -0.06 z M42.96 16.020000000000003 c-0.06 0 -0.12 0.06 -0.12 0.06 s0.06 0.06 0.12 0.06 l0.06 -0.06 z M2.1 15.299999999999997 c-0.48 0 -0.48 0.24 -0.48 0.72 c0 0 0.48 0 0.48 -0.72 z M46.14 15.420000000000002 l0 0.48 l0.3 0 c0 -0.42 -0.36 -0.48 -0.3 -0.48 z M6.12 15.719999999999999 c0 0 -0.06 0.06 -0.06 0.12 l0.06 0.06 c0.06 0 0.06 -0.06 0.06 -0.06 c0 -0.06 0 -0.12 -0.06 -0.12 z M16.92 15.420000000000002 c0.06 0.12 0.12 0.24 0.12 0.36 c0.3 0 0.24 0 0.36 -0.06 c0 -0.24 -0.18 -0.3 -0.3 -0.3 l-0.18 0 z M30.96 15.54 c0 0 -0.06 0 -0.06 0.06 s0.06 0.12 0.06 0.12 c0.06 0 0.06 -0.06 0.06 -0.12 s0 -0.06 -0.06 -0.06 z M45.18 15 c0 0.06 0 0.54 0.3 0.72 c0 -0.12 0.06 -0.42 0.06 -0.72 l-0.36 0 z M27.3 15.240000000000002 l0 0.3 c0.12 -0.06 0.12 -0.18 0.12 -0.3 l-0.12 0 z M35.7 15.420000000000002 c-0.06 0 -0.06 0.06 -0.06 0.06 c0 0.06 0 0.06 0.06 0.06 s0.06 0 0.06 -0.06 c0 0 0 -0.06 -0.06 -0.06 z M39.06 15.299999999999997 l-0.06 0.06 c0 0.06 0.06 0.06 0.06 0.06 c0.06 0 0.06 0 0.06 -0.06 c0 0 0 -0.06 -0.06 -0.06 z M6.12 15.240000000000002 c0 0 -0.06 0.06 -0.06 0.12 l0.06 0.06 c0.06 0 0.06 -0.06 0.06 -0.06 c0 -0.06 0 -0.12 -0.06 -0.12 z M19.38 15.299999999999997 l-0.06 -0.06 c-0.06 0 -0.06 0.06 -0.06 0.06 c0 0.06 0 0.12 0.06 0.12 c0 0 0.06 -0.06 0.06 -0.12 z M16.92 15.119999999999997 c-0.06 0 -0.12 0.06 -0.12 0.12 c0 0 0.06 0.06 0.12 0.06 l0 -0.18 z M33.18 15.119999999999997 c-0.06 0 -0.06 0.06 -0.06 0.12 c0 0 0 0.06 0.06 0.06 s0.06 -0.06 0.06 -0.06 c0 -0.06 0 -0.12 -0.06 -0.12 z M44.34 15.240000000000002 c0 -0.06 -0.06 -0.06 -0.12 -0.06 s-0.12 0 -0.12 0.06 s0.06 0.06 0.12 0.06 s0.12 0 0.12 -0.06 z"/></g><g id="SvgjsG7754" featureKey="nameFeature-0" transform="matrix(0.7968521133532137,0,0,0.7968521133532137,97.80068836472886,3.481947253409479)" fill="#fff"><path d="M9.04 11.440000000000001 l0 10.96 l11.56 0 l0 -10.96 l6.28 0 l0 28.56 l-6.28 0 l0 -12.32 l-11.56 0 l0 12.32 l-6.28 0 l0 -28.56 l6.28 0 z M46.107 10.760000000000002 c4.2132 0 7.6068 1.4 10.18 4.2 s3.86 6.4268 3.86 10.88 c0 4.3468 -1.2933 7.9068 -3.88 10.68 s-5.9732 4.16 -10.16 4.16 c-4.2132 0 -7.6068 -1.3867 -10.18 -4.16 s-3.86 -6.3332 -3.86 -10.68 c0 -4.4268 1.2933 -8.0468 3.88 -10.86 s5.9732 -4.22 10.16 -4.22 z M38.347 25.84 c0 2.88 0.67996 5.1932 2.04 6.94 s3.2667 2.62 5.72 2.62 c2.4 0 4.2932 -0.86 5.68 -2.58 s2.08 -4.0468 2.08 -6.98 c0 -3.0667 -0.68668 -5.4668 -2.06 -7.2 s-3.2866 -2.6 -5.74 -2.6 c-2.4 0 -4.2868 0.86668 -5.66 2.6 s-2.06 4.1332 -2.06 7.2 z M71.574 11.440000000000001 l11.92 19.16 l0.08 0 l0 -19.16 l5.88 0 l0 28.56 l-6.28 0 l-11.88 -19.12 l-0.08 0 l0 19.12 l-5.88 0 l0 -28.56 l6.24 0 z M108.681 10.760000000000002 c4.2132 0 7.6068 1.4 10.18 4.2 s3.86 6.4268 3.86 10.88 c0 4.3468 -1.2933 7.9068 -3.88 10.68 s-5.9732 4.16 -10.16 4.16 c-4.2132 0 -7.6068 -1.3867 -10.18 -4.16 s-3.86 -6.3332 -3.86 -10.68 c0 -4.4268 1.2933 -8.0468 3.88 -10.86 s5.9732 -4.22 10.16 -4.22 z M100.92099999999999 25.84 c0 2.88 0.67996 5.1932 2.04 6.94 s3.2667 2.62 5.72 2.62 c2.4 0 4.2932 -0.86 5.68 -2.58 s2.08 -4.0468 2.08 -6.98 c0 -3.0667 -0.68668 -5.4668 -2.06 -7.2 s-3.2866 -2.6 -5.74 -2.6 c-2.4 0 -4.2868 0.86668 -5.66 2.6 s-2.06 4.1332 -2.06 7.2 z M143.308 11.440000000000001 c2.4 0 4.3936 0.74 5.98 2.22 s2.38 3.3667 2.38 5.66 c0 3.5733 -1.5067 5.96 -4.52 7.16 l0 0.08 c1.0133 0.29332 1.8066 0.78 2.38 1.46 s1.0066 1.4733 1.3 2.38 s0.48 2.36 0.56 4.36 c0.10668 2.6133 0.48 4.36 1.12 5.24 l-6.28 0 c-0.34668 -0.88 -0.61336 -2.5333 -0.80004 -4.96 c-0.21332 -2.56 -0.68 -4.2332 -1.4 -5.02 s-1.8933 -1.18 -3.52 -1.18 l-6.32 0 l0 11.16 l-6.28 0 l0 -28.56 l15.4 0 z M141.108 24.36 c1.3333 0 2.38 -0.3 3.14 -0.9 s1.14 -1.66 1.14 -3.18 c0 -1.44 -0.37332 -2.46 -1.12 -3.06 s-1.8134 -0.9 -3.2 -0.9 l-6.88 0 l0 8.04 l6.92 0 z M179.055 11.440000000000001 l0 5.28 l-15.08 0 l0 6.12 l13.84 0 l0 4.88 l-13.84 0 l0 7 l15.4 0 l0 5.28 l-21.68 0 l0 -28.56 l21.36 0 z M175.975 3.1599999999999966 l-6.16 5.68 l-3.96 0 l3.84 -5.68 l6.28 0 z M210.789 11.440000000000001 l10.68 28.56 l-6.52 0 l-2.16 -6.36 l-10.68 0 l-2.24 6.36 l-6.36 0 l10.84 -28.56 l6.44 0 z M207.469 18.48 l-3.72 10.48 l7.4 0 l-3.6 -10.48 l-0.08 0 z M237.096 11.440000000000001 c4.0532 0 7.24 1.2533 9.56 3.76 s3.48 5.96 3.48 10.36 c0 4.56 -1.1667 8.1068 -3.5 10.64 s-5.46 3.8 -9.38 3.8 l-12.4 0 l0 -28.56 l12.24 0 z M236.696 34.72 c2.2667 0 4.0268 -0.74668 5.28 -2.24 s1.88 -3.6133 1.88 -6.36 c0 -3.1467 -0.67332 -5.5 -2.02 -7.06 s-3.42 -2.34 -6.22 -2.34 l-4.48 0 l0 18 l5.56 0 z M258.803 11.440000000000001 l6.36 20.08 l0.08 0 l6.44 -20.08 l6.48 0 l-9.48 28.56 l-7.08 0 l-9.28 -28.56 l6.48 0 z M287.79 11.440000000000001 l0 28.56 l-6.28 0 l0 -28.56 l6.28 0 z M304.057 10.760000000000002 c3.4933 0 6.2732 0.80004 8.34 2.4 s3.1 3.8667 3.1 6.8 l-6.08 0 c-0.08 -1.44 -0.56668 -2.52 -1.46 -3.24 s-2.2733 -1.08 -4.14 -1.08 c-1.3067 0 -2.36 0.28668 -3.16 0.86 s-1.2 1.3666 -1.2 2.38 c0 0.82668 0.24668 1.4267 0.74 1.8 s1.1933 0.70664 2.1 0.99996 s2.4934 0.72 4.76 1.28 c2.3733 0.58668 4.2 1.2267 5.48 1.92 s2.2533 1.58 2.92 2.66 s1 2.4067 1 3.98 c0 1.8133 -0.48 3.4266 -1.44 4.84 s-2.36 2.4866 -4.2 3.22 s-3.92 1.1 -6.24 1.1 c-3.5467 0 -6.46 -0.88668 -8.74 -2.66 s-3.42 -4.2068 -3.42 -7.3 l0 -0.2 l6.08 0 c0 1.68 0.57332 2.98 1.72 3.9 s2.6667 1.38 4.56 1.38 c1.68 0 3.0333 -0.3 4.06 -0.9 s1.54 -1.4867 1.54 -2.66 c0 -0.77332 -0.28 -1.4266 -0.84 -1.96 s-1.3067 -0.96664 -2.24 -1.3 s-2.5066 -0.75332 -4.72 -1.26 c-2.56 -0.64 -4.4268 -1.32 -5.6 -2.04 s-2.0666 -1.5933 -2.68 -2.62 s-0.92 -2.26 -0.92 -3.7 c0 -1.7867 0.51332 -3.3467 1.54 -4.68 s2.3667 -2.32 4.02 -2.96 s3.36 -0.96 5.12 -0.96 z M333.884 10.760000000000002 c4.2132 0 7.6068 1.4 10.18 4.2 s3.86 6.4268 3.86 10.88 c0 4.3468 -1.2933 7.9068 -3.88 10.68 s-5.9732 4.16 -10.16 4.16 c-4.2132 0 -7.6068 -1.3867 -10.18 -4.16 s-3.86 -6.3332 -3.86 -10.68 c0 -4.4268 1.2933 -8.0468 3.88 -10.86 s5.9732 -4.22 10.16 -4.22 z M326.124 25.84 c0 2.88 0.67996 5.1932 2.04 6.94 s3.2667 2.62 5.72 2.62 c2.4 0 4.2932 -0.86 5.68 -2.58 s2.08 -4.0468 2.08 -6.98 c0 -3.0667 -0.68668 -5.4668 -2.06 -7.2 s-3.2866 -2.6 -5.74 -2.6 c-2.4 0 -4.2868 0.86668 -5.66 2.6 s-2.06 4.1332 -2.06 7.2 z M368.511 11.440000000000001 c2.4 0 4.3936 0.74 5.98 2.22 s2.38 3.3667 2.38 5.66 c0 3.5733 -1.5067 5.96 -4.52 7.16 l0 0.08 c1.0133 0.29332 1.8066 0.78 2.38 1.46 s1.0066 1.4733 1.3 2.38 s0.48 2.36 0.56 4.36 c0.10668 2.6133 0.48 4.36 1.12 5.24 l-6.28 0 c-0.34668 -0.88 -0.61336 -2.5333 -0.80004 -4.96 c-0.21332 -2.56 -0.68 -4.2332 -1.4 -5.02 s-1.8933 -1.18 -3.52 -1.18 l-6.32 0 l0 11.16 l-6.28 0 l0 -28.56 l15.4 0 z M366.311 24.36 c1.3333 0 2.38 -0.3 3.14 -0.9 s1.14 -1.66 1.14 -3.18 c0 -1.44 -0.37332 -2.46 -1.12 -3.06 s-1.8134 -0.9 -3.2 -0.9 l-6.88 0 l0 8.04 l6.92 0 z"/></g><g id="SvgjsG7755" featureKey="sloganFeature-0" transform="matrix(1.0121797867566558,0,0,1.0121797867566558,99.87853854142398,53.10516567473538)" fill="#fff"><path d="M8.66 20 l-3.8 0 l-4.74 -13.7 l3.34 0 l3.38 10.36 l3.38 -10.36 l3.2 0 z M21.32 20.28 c-4 0 -7.26 -3.06 -7.26 -7.12 c0 -4.08 3.26 -7.14 7.26 -7.14 c4.1 0 7.26 3.06 7.26 7.12 c0 4.08 -3.16 7.14 -7.26 7.14 z M21.32 17.4 c2.32 0 4.1 -1.84 4.1 -4.26 c0 -2.38 -1.78 -4.24 -4.1 -4.24 s-4.1 1.86 -4.1 4.26 s1.78 4.24 4.1 4.24 z M36.58 20 l-3.1 0 l0 -10.86 l-4.08 0 l0 -2.84 l11.26 0 l0 2.84 l-4.08 0 l0 10.86 z M47.18 9.14 l-2.28 0 l0 3.66 l2.18 0 c1.34 0 2.16 -0.76 2.16 -1.82 s-0.68 -1.84 -2.06 -1.84 z M44.9 15.34 l0 4.66 l-3.1 0 l0 -13.7 l5.84 0 c2.92 0 4.72 1.88 4.72 4.56 c0 2.14 -1.42 3.92 -3.74 4.38 l4.36 4.76 l-4.04 0 z M54.10000000000001 20 l0 -13.7 l10.02 0 l0 2.8 l-6.92 0 l0 2.58 l6.4 0 l0 2.72 l-6.4 0 l0 2.8 l6.94 0 l0 2.8 l-10.04 0 z M78.62 15.14 l-6.06 0 l0 4.86 l-3.1 0 l0 -13.7 l9.68 0 l0 2.84 l-6.58 0 l0 3.28 l6.06 0 l0 2.72 z M83.60000000000001 20 l-3.1 0 l0 -13.7 l3.1 0 l0 13.7 z M90.24000000000001 20.26 c-3.46 0 -5.36 -1.72 -5.54 -4.54 l3.1 0 c0.06 1.04 0.66 2.08 2.52 2.08 c1.56 0 2.36 -0.62 2.36 -1.48 c0 -1.06 -1.34 -1.34 -2.9 -1.68 c-2.18 -0.52 -4.84 -1.16 -4.84 -4.42 c0 -2.4 1.86 -4.18 5.14 -4.18 c3.34 0 5.18 1.82 5.38 4.5 l-3.12 0 c-0.06 -1.1 -0.66 -1.98 -2.34 -1.98 c-1.24 0 -2.06 0.5 -2.06 1.4 c0 1.16 1.36 1.48 2.92 1.84 c2.24 0.5 4.92 1.06 4.92 4.14 c0 2.5 -1.96 4.32 -5.54 4.32 z M103.94000000000003 8.9 c-2.32 0 -4.08 1.86 -4.08 4.22 c0 2.42 1.76 4.26 4.18 4.26 c1.68 0 2.96 -0.88 3.74 -2.22 l2.42 1.68 c-1.32 2.16 -3.34 3.44 -6.12 3.44 c-4.22 0 -7.38 -3.14 -7.38 -7.16 c0 -3.98 3.14 -7.1 7.3 -7.1 c2.7 0 4.84 1.12 6.14 3.42 l-2.46 1.7 c-0.8 -1.32 -2 -2.24 -3.74 -2.24 z M119.10000000000002 14.9 l-1.78 -5.36 l-1.78 5.36 l3.56 0 z M120.80000000000001 20 l-0.78 -2.36 l-5.38 0 l-0.78 2.36 l-3.18 0 l4.84 -13.7 l3.8 0 l4.82 13.7 l-3.34 0 z M125.10000000000002 20 l0 -13.7 l3.1 0 l0 10.86 l6.36 0 l0 2.84 l-9.46 0 z M139.08 20 l-3.1 0 l0 -13.7 l3.1 0 l0 13.7 z M145.72 20.26 c-3.46 0 -5.36 -1.72 -5.54 -4.54 l3.1 0 c0.06 1.04 0.66 2.08 2.52 2.08 c1.56 0 2.36 -0.62 2.36 -1.48 c0 -1.06 -1.34 -1.34 -2.9 -1.68 c-2.18 -0.52 -4.84 -1.16 -4.84 -4.42 c0 -2.4 1.86 -4.18 5.14 -4.18 c3.34 0 5.18 1.82 5.38 4.5 l-3.12 0 c-0.06 -1.1 -0.66 -1.98 -2.34 -1.98 c-1.24 0 -2.06 0.5 -2.06 1.4 c0 1.16 1.36 1.48 2.92 1.84 c2.24 0.5 4.92 1.06 4.92 4.14 c0 2.5 -1.96 4.32 -5.54 4.32 z M159.14 20 l-3.1 0 l0 -10.86 l-4.08 0 l0 -2.84 l11.26 0 l0 2.84 l-4.08 0 l0 10.86 z M164.35999999999999 20 l0 -13.7 l10.02 0 l0 2.8 l-6.92 0 l0 2.58 l6.4 0 l0 2.72 l-6.4 0 l0 2.8 l6.94 0 l0 2.8 l-10.04 0 z M187.41999999999996 14.9 l-1.78 -5.36 l-1.78 5.36 l3.56 0 z M189.11999999999998 20 l-0.78 -2.36 l-5.38 0 l-0.78 2.36 l-3.18 0 l4.84 -13.7 l3.8 0 l4.82 13.7 l-3.34 0 z M197.35999999999996 20 l0 -13.7 l5.6 0 c4.22 0 6.98 3 6.98 6.78 c0 3.86 -2.88 6.92 -7.14 6.92 l-5.44 0 z M202.79999999999995 9.14 l-2.34 0 l0 8.02 l2.44 0 c2.22 0 3.92 -1.72 3.92 -4.04 c0 -2.28 -1.7 -3.98 -4.02 -3.98 z M217.15999999999994 20.24 c-3.84 0 -5.94 -2.28 -5.94 -5.68 l0 -8.26 l3.1 0 l0 7.84 c0 2.08 1.02 3.22 2.82 3.22 c1.78 0 2.78 -1.14 2.78 -3.22 l0 -7.84 l3.1 0 l0 8.26 c0 3.4 -2.08 5.68 -5.86 5.68 z M224.61999999999995 20 l0 -13.7 l5.64 0 c3.06 0 4.42 1.7 4.42 3.72 c0 1.22 -0.58 2.2 -1.72 2.78 c1.72 0.52 2.64 1.68 2.64 3.28 c0 2.24 -1.58 3.92 -4.82 3.92 l-6.16 0 z M230.03999999999994 8.96 l-2.32 0 l0 2.8 l2.32 0 c1.06 0 1.6 -0.6 1.6 -1.42 c0 -0.8 -0.54 -1.38 -1.6 -1.38 z M230.59999999999994 14.379999999999999 l-2.88 0 l0 2.96 l2.9 0 c1.2 0 1.88 -0.6 1.88 -1.44 c0 -0.9 -0.68 -1.52 -1.9 -1.52 z M244.55999999999995 14.9 l-1.78 -5.36 l-1.78 5.36 l3.56 0 z M246.25999999999996 20 l-0.78 -2.36 l-5.38 0 l-0.78 2.36 l-3.18 0 l4.84 -13.7 l3.8 0 l4.82 13.7 l-3.34 0 z M255.15999999999994 5.4399999999999995 l-2.68 0 l0 -2.58 l2.68 0 l0 2.58 z M251.71999999999994 5.4399999999999995 l-2.68 0 l0 -2.58 l2.68 0 l0 2.58 z M253.65999999999994 20 l-3.1 0 l0 -13.7 l3.1 0 l0 13.7 z"/></g>
			</g>
		</svg>
	